<svg width="22" height="22" viewBox="0 0 22 22" fill="none" xmlns="http://www.w3.org/2000/svg">
<g clip-path="url(#clip0_16_57)">
<path d="M16.0415 1.75732C15.0093 1.77338 13.9996 2.06152 13.1143 2.59266C12.2291 3.12379 11.4997 3.8791 10.9998 4.78232C10.4999 3.8791 9.77049 3.12379 8.88527 2.59266C8.00004 2.06152 6.99035 1.77338 5.95813 1.75732C4.31266 1.82882 2.76236 2.54864 1.64593 3.75954C0.529504 4.97043 -0.0623057 6.57397 -0.000200993 8.21983C-0.000200993 12.3879 4.38697 16.9401 8.06647 20.0265C8.888 20.7169 9.92671 21.0954 10.9998 21.0954C12.0729 21.0954 13.1116 20.7169 13.9331 20.0265C17.6126 16.9401 21.9998 12.3879 21.9998 8.21983C22.0619 6.57397 21.4701 4.97043 20.3537 3.75954C19.2372 2.54864 17.6869 1.82882 16.0415 1.75732ZM12.7552 18.624C12.2639 19.0378 11.6422 19.2647 10.9998 19.2647C10.3574 19.2647 9.73573 19.0378 9.24438 18.624C4.53455 14.6722 1.83313 10.8809 1.83313 8.21983C1.77047 7.05998 2.16897 5.92241 2.94172 5.05522C3.71446 4.18802 4.79876 3.66156 5.95813 3.59066C7.1175 3.66156 8.2018 4.18802 8.97455 5.05522C9.7473 5.92241 10.1458 7.05998 10.0831 8.21983C10.0831 8.46294 10.1797 8.6961 10.3516 8.86801C10.5235 9.03992 10.7567 9.13649 10.9998 9.13649C11.2429 9.13649 11.4761 9.03992 11.648 8.86801C11.8199 8.6961 11.9165 8.46294 11.9165 8.21983C11.8538 7.05998 12.2523 5.92241 13.025 5.05522C13.7978 4.18802 14.8821 3.66156 16.0415 3.59066C17.2008 3.66156 18.2851 4.18802 19.0579 5.05522C19.8306 5.92241 20.2291 7.05998 20.1665 8.21983C20.1665 10.8809 17.465 14.6722 12.7552 18.6203V18.624Z" fill="white"/>
</g>
<defs>
<clipPath id="clip0_16_57">
<rect width="22" height="22" fill="white"/>
</clipPath>
</defs>
</svg>
