<svg width="20" height="20" viewBox="0 0 20 20" fill="none" xmlns="http://www.w3.org/2000/svg">
<g clip-path="url(#clip0_16_111)">
<path d="M10 5C9.34073 5 8.69626 5.1955 8.1481 5.56177C7.59994 5.92804 7.17269 6.44863 6.9204 7.05772C6.66811 7.66681 6.6021 8.33703 6.73071 8.98363C6.85933 9.63024 7.1768 10.2242 7.64298 10.6904C8.10915 11.1565 8.7031 11.474 9.3497 11.6026C9.99631 11.7312 10.6665 11.6652 11.2756 11.4129C11.8847 11.1606 12.4053 10.7334 12.7716 10.1852C13.1378 9.63707 13.3333 8.9926 13.3333 8.33333C13.3333 7.44928 12.9822 6.60143 12.357 5.97631C11.7319 5.35119 10.8841 5 10 5ZM10 10C9.67037 10 9.34813 9.90225 9.07405 9.71912C8.79997 9.53598 8.58635 9.27568 8.4602 8.97114C8.33406 8.6666 8.30105 8.33149 8.36536 8.00818C8.42967 7.68488 8.5884 7.38791 8.82149 7.15482C9.05458 6.92174 9.35155 6.763 9.67485 6.69869C9.99815 6.63438 10.3333 6.66739 10.6378 6.79353C10.9424 6.91968 11.2027 7.1333 11.3858 7.40738C11.5689 7.68147 11.6667 8.0037 11.6667 8.33333C11.6667 8.77536 11.4911 9.19928 11.1785 9.51184C10.866 9.82441 10.442 10 10 10Z" fill="#E51C23"/>
<path d="M10 20C9.29829 20.0036 8.60593 19.839 7.98089 19.52C7.35585 19.201 6.81633 18.737 6.4075 18.1666C3.23167 13.7858 1.62083 10.4925 1.62083 8.37746C1.62083 6.15517 2.50364 4.02389 4.07504 2.45249C5.64643 0.881094 7.77771 -0.00170898 10 -0.00170898C12.2223 -0.00170898 14.3536 0.881094 15.925 2.45249C17.4964 4.02389 18.3792 6.15517 18.3792 8.37746C18.3792 10.4925 16.7683 13.7858 13.5925 18.1666C13.1837 18.737 12.6442 19.201 12.0191 19.52C11.3941 19.839 10.7017 20.0036 10 20ZM10 1.81746C8.26035 1.81944 6.59252 2.5114 5.3624 3.74152C4.13227 4.97164 3.44032 6.63947 3.43833 8.37912C3.43833 10.0541 5.01583 13.1516 7.87917 17.1008C8.12225 17.4356 8.44114 17.7081 8.80976 17.896C9.17838 18.0839 9.58625 18.1819 10 18.1819C10.4138 18.1819 10.8216 18.0839 11.1902 17.896C11.5589 17.7081 11.8778 17.4356 12.1208 17.1008C14.9842 13.1516 16.5617 10.0541 16.5617 8.37912C16.5597 6.63947 15.8677 4.97164 14.6376 3.74152C13.4075 2.5114 11.7397 1.81944 10 1.81746Z" fill="#E51C23"/>
</g>
<defs>
<clipPath id="clip0_16_111">
<rect width="20" height="20" fill="white"/>
</clipPath>
</defs>
</svg>
