<svg width="16" height="16" viewBox="0 0 16 16" fill="none" xmlns="http://www.w3.org/2000/svg">
<g clip-path="url(#clip0_16_61)">
<path d="M15.8047 14.862L11.8254 10.8826C12.9098 9.55637 13.443 7.86404 13.3146 6.15568C13.1862 4.44733 12.4062 2.85366 11.1358 1.70432C9.86534 0.554984 8.20177 -0.0620951 6.48913 -0.0192739C4.7765 0.0235473 3.14584 0.722992 1.93445 1.93439C0.723053 3.14578 0.0236083 4.77644 -0.0192129 6.48907C-0.0620341 8.2017 0.555045 9.86528 1.70439 11.1357C2.85373 12.4061 4.44739 13.1862 6.15575 13.3145C7.8641 13.4429 9.55644 12.9097 10.8827 11.8253L14.862 15.8046C14.9878 15.9261 15.1562 15.9933 15.331 15.9918C15.5058 15.9902 15.673 15.9201 15.7966 15.7965C15.9202 15.6729 15.9903 15.5057 15.9918 15.3309C15.9933 15.1561 15.9261 14.9877 15.8047 14.862ZM6.66671 12C5.61187 12 4.58073 11.6872 3.70366 11.1011C2.8266 10.5151 2.14301 9.68216 1.73935 8.70762C1.33568 7.73308 1.23006 6.66073 1.43585 5.62616C1.64164 4.5916 2.14959 3.64129 2.89547 2.89541C3.64135 2.14953 4.59166 1.64158 5.62622 1.43579C6.66079 1.23 7.73314 1.33562 8.70768 1.73929C9.68222 2.14295 10.5152 2.82654 11.1012 3.7036C11.6872 4.58066 12 5.61181 12 6.66664C11.9985 8.08064 11.436 9.43628 10.4362 10.4361C9.43634 11.436 8.08071 11.9984 6.66671 12Z" fill="white"/>
</g>
<defs>
<clipPath id="clip0_16_61">
<rect width="16" height="16" fill="white"/>
</clipPath>
</defs>
</svg>
