<svg width="20" height="20" viewBox="0 0 20 20" fill="none" xmlns="http://www.w3.org/2000/svg">
<g clip-path="url(#clip0_32_1193)">
<path d="M10 0C8.02219 0 6.08879 0.58649 4.4443 1.6853C2.79981 2.78412 1.51808 4.3459 0.761205 6.17317C0.00432904 8.00043 -0.193704 10.0111 0.192148 11.9509C0.578 13.8907 1.53041 15.6725 2.92893 17.0711C4.32746 18.4696 6.10929 19.422 8.0491 19.8079C9.98891 20.1937 11.9996 19.9957 13.8268 19.2388C15.6541 18.4819 17.2159 17.2002 18.3147 15.5557C19.4135 13.9112 20 11.9778 20 10C19.9971 7.34872 18.9426 4.80684 17.0679 2.9321C15.1932 1.05736 12.6513 0.00286757 10 0V0ZM10 18.3333C8.35182 18.3333 6.74066 17.8446 5.37025 16.9289C3.99984 16.0132 2.93173 14.7117 2.301 13.189C1.67027 11.6663 1.50525 9.99076 1.82679 8.37425C2.14833 6.75774 2.94201 5.27288 4.10744 4.10744C5.27288 2.94201 6.75774 2.14833 8.37425 1.82679C9.99076 1.50525 11.6663 1.67027 13.189 2.301C14.7117 2.93173 16.0132 3.99984 16.9289 5.37025C17.8446 6.74066 18.3333 8.35182 18.3333 10C18.3309 12.2094 17.4522 14.3276 15.8899 15.8899C14.3276 17.4522 12.2094 18.3309 10 18.3333ZM11.6667 10C11.668 10.2929 11.5921 10.5809 11.4467 10.8351C11.3012 11.0894 11.0914 11.3008 10.8382 11.4481C10.5851 11.5954 10.2976 11.6734 10.0047 11.6742C9.71185 11.675 9.42393 11.5987 9.16996 11.4528C8.91598 11.3069 8.70493 11.0967 8.55806 10.8433C8.41119 10.5899 8.33368 10.3023 8.33335 10.0094C8.33302 9.71655 8.40987 9.42876 8.55616 9.17503C8.70246 8.9213 8.91303 8.71061 9.16667 8.56417V5.83333C9.16667 5.61232 9.25446 5.40036 9.41074 5.24408C9.56702 5.0878 9.77899 5 10 5C10.221 5 10.433 5.0878 10.5893 5.24408C10.7455 5.40036 10.8333 5.61232 10.8333 5.83333V8.56417C11.0859 8.70942 11.2959 8.91854 11.4422 9.17056C11.5884 9.42257 11.6658 9.70862 11.6667 10Z" fill="white"/>
</g>
<defs>
<clipPath id="clip0_32_1193">
<rect width="20" height="20" fill="white"/>
</clipPath>
</defs>
</svg>
