<svg width="22" height="22" viewBox="0 0 22 22" fill="none" xmlns="http://www.w3.org/2000/svg">
<path d="M11 11C12.0878 11 13.1512 10.6774 14.0556 10.0731C14.9601 9.46874 15.6651 8.60976 16.0813 7.60476C16.4976 6.59977 16.6065 5.4939 16.3943 4.42701C16.1821 3.36011 15.6583 2.3801 14.8891 1.61092C14.1199 0.841726 13.1399 0.317902 12.073 0.105683C11.0061 -0.106535 9.90024 0.00238307 8.89524 0.418665C7.89025 0.834947 7.03127 1.5399 6.42692 2.44437C5.82257 3.34884 5.5 4.41221 5.5 5.5C5.50146 6.95825 6.08139 8.35635 7.11252 9.38748C8.14366 10.4186 9.54176 10.9985 11 11ZM11 1.83334C11.7252 1.83334 12.4341 2.04838 13.0371 2.45128C13.6401 2.85418 14.11 3.42683 14.3876 4.09683C14.6651 4.76683 14.7377 5.50407 14.5962 6.21533C14.4547 6.9266 14.1055 7.57994 13.5927 8.09273C13.0799 8.60552 12.4266 8.95474 11.7153 9.09622C11.0041 9.23769 10.2668 9.16508 9.59683 8.88756C8.92683 8.61004 8.35418 8.14007 7.95128 7.53709C7.54838 6.93411 7.33333 6.2252 7.33333 5.5C7.33333 4.52754 7.71964 3.59491 8.40728 2.90728C9.09491 2.21964 10.0275 1.83334 11 1.83334Z" fill="white"/>
<path d="M11 12.8334C8.81271 12.8358 6.7157 13.7058 5.16905 15.2524C3.6224 16.7991 2.75243 18.8961 2.75 21.0834C2.75 21.3265 2.84658 21.5596 3.01849 21.7316C3.19039 21.9035 3.42355 22 3.66667 22C3.90978 22 4.14294 21.9035 4.31485 21.7316C4.48676 21.5596 4.58333 21.3265 4.58333 21.0834C4.58333 19.3816 5.25937 17.7495 6.46273 16.5461C7.66609 15.3427 9.29819 14.6667 11 14.6667C12.7018 14.6667 14.3339 15.3427 15.5373 16.5461C16.7406 17.7495 17.4167 19.3816 17.4167 21.0834C17.4167 21.3265 17.5132 21.5596 17.6852 21.7316C17.8571 21.9035 18.0902 22 18.3333 22C18.5764 22 18.8096 21.9035 18.9815 21.7316C19.1534 21.5596 19.25 21.3265 19.25 21.0834C19.2476 18.8961 18.3776 16.7991 16.831 15.2524C15.2843 13.7058 13.1873 12.8358 11 12.8334Z" fill="white"/>
</svg>
